P3
# Created by GIMP version 2.10.8 PNM plug-in
16 16
255
225
131
110
225
131
107
172
69
83
190
83
86
206
98
94
209
99
97
206
99
97
206
99
96
205
97
95
197
92
95
208
115
106
225
132
108
225
145
117
211
148
118
193
94
95
162
75
83
228
132
107
226
127
103
170
64
78
192
81
85
207
92
92
207
98
101
203
117
117
206
137
129
204
111
109
199
88
93
204
101
102
222
126
110
220
121
104
232
172
133
159
85
87
96
25
63
196
94
87
228
128
102
163
59
77
187
77
84
201
89
89
189
90
97
198
115
117
216
164
151
222
191
178
192
131
130
204
101
99
204
101
99
222
112
100
199
107
97
98
26
64
133
68
85
171
66
77
226
125
104
162
59
77
186
81
86
196
91
89
197
98
102
204
123
123
219
174
162
223
189
179
225
200
187
206
129
121
174
90
93
216
157
148
121
46
71
116
50
77
202
129
122
181
70
78
228
133
108
166
61
75
195
107
94
194
86
87
201
104
107
212
132
127
218
157
145
218
169
161
218
178
169
219
174
164
220
182
168
226
195
182
95
28
66
185
109
113
212
137
126
184
74
80
232
136
107
164
57
73
194
105
89
213
115
97
202
101
106
199
109
119
175
107
132
176
108
121
215
163
153
221
186
172
211
170
160
176
124
120
135
67
87
211
136
129
209
135
125
183
73
81
232
137
109
162
57
74
183
81
84
217
137
113
186
90
107
122
52
93
118
56
100
188
140
144
216
170
159
199
145
139
177
109
114
106
40
67
177
110
111
212
144
130
207
136
128
179
71
80
232
140
112
165
61
79
192
83
87
185
100
104
108
40
84
105
42
86
191
134
129
208
139
136
232
162
151
220
158
147
132
70
90
114
47
75
203
133
124
203
136
125
198
129
126
168
64
76
233
143
114
172
63
75
177
105
111
127
67
110
104
45
90
156
103
106
205
135
129
185
109
118
224
138
134
161
82
97
141
79
98
149
82
92
207
133
122
199
128
121
202
143
128
143
47
70
233
141
115
168
77
105
124
74
122
111
55
94
135
69
87
166
112
110
219
106
108
229
136
130
225
140
139
198
99
105
140
73
89
181
111
106
200
130
122
208
147
123
236
192
147
148
53
73
232
142
118
157
66
96
118
62
113
137
81
114
166
116
119
121
49
72
217
92
95
223
114
112
218
131
129
159
75
90
145
76
89
202
127
114
196
125
119
228
177
134
238
203
165
140
54
74
232
146
120
144
67
99
115
65
115
161
106
136
121
58
76
108
32
65
178
69
78
221
104
107
213
115
124
106
32
66
147
71
83
202
133
120
187
125
120
234
194
154
239
201
159
139
73
91
229
139
119
132
77
98
116
64
109
135
94
139
122
74
99
101
31
69
155
61
79
212
104
109
220
151
138
177
135
128
152
78
89
183
110
110
170
99
103
236
191
144
158
87
85
146
105
114
232
144
117
112
51
80
107
52
90
127
81
128
135
93
121
118
40
69
190
79
84
220
106
101
225
138
125
237
190
169
187
135
124
189
122
115
212
155
125
210
148
116
163
71
87
145
106
112
230
142
112
113
49
82
95
33
75
116
71
114
108
56
92
153
57
70
200
90
91
222
106
100
222
122
112
230
176
158
209
163
153
161
94
97
222
161
119
170
84
82
145
64
85
165
124
126
224
141
113
103
39
77
106
49
91
114
66
104
119
56
86
185
75
77
217
98
91
224
109
102
222
114
104
225
152
137
224
184
170
156
78
88
181
99
90
142
64
84
132
60
83
