P3
# 8-bit ppm RGB
4 3
255
255   0   0 255 255 255 255   0   0 255 255 255
  0   0   0   0 255   0   0   0   0   0 255   0
  0   0 255 255 255 255   0   0 255 255 255 255
